<svg xmlns="http://www.w3.org/2000/svg" width="21.907" height="38.439" viewBox="0 0 21.907 38.439">
  <g id="small" transform="translate(-193.403 -167.936)">
    <g id="å" style="isolation: isolate">
      <g id="Group_15" data-name="Group 15" style="isolation: isolate">
        <path id="Path_37" data-name="Path 37" d="M210.63,205.935l-1.3-3.339h-.176a9.9,9.9,0,0,1-3.482,2.955,11.259,11.259,0,0,1-4.669.824,7.55,7.55,0,0,1-5.571-2.022A7.76,7.76,0,0,1,193.4,198.6a6.482,6.482,0,0,1,2.735-5.768q2.737-1.857,8.251-2.055l4.263-.132v-1.076q0-3.735-3.823-3.736a17.437,17.437,0,0,0-6.922,1.78l-2.219-4.526a19.965,19.965,0,0,1,9.4-2.219q4.942,0,7.58,2.152t2.637,6.549v16.369Zm-1.978-11.381-2.593.087a8.31,8.31,0,0,0-4.35,1.055,3.314,3.314,0,0,0-1.428,2.945q0,2.833,3.251,2.833a5.154,5.154,0,0,0,3.725-1.339,4.709,4.709,0,0,0,1.395-3.56Z" fill="#f4f3f7"/>
      </g>
    </g>
    <g id="Group_16" data-name="Group 16">
      <ellipse id="Ellipse_9" data-name="Ellipse 9" cx="6" cy="5.5" rx="6" ry="5.5" transform="translate(199.514 167.936)" fill="#f3b1ca"/>
      <ellipse id="Ellipse_8" data-name="Ellipse 8" cx="2.5" cy="3" rx="2.5" ry="3" transform="translate(204.514 171.936)" fill="#28313e"/>
    </g>
  </g>
</svg>
