<svg xmlns="http://www.w3.org/2000/svg" width="118.564" height="48.811" viewBox="0 0 118.564 48.811">
  <g id="logo" transform="translate(-177.39 -100.453)">
    <g id="Group_17" data-name="Group 17" style="isolation: isolate">
      <path id="Path_38" data-name="Path 38" d="M198.33,129.532a8.3,8.3,0,0,1-3.132,6.856q-3.129,2.5-8.711,2.5a20.463,20.463,0,0,1-9.1-1.933v-6.328a37.371,37.371,0,0,0,5.5,2.043,16.262,16.262,0,0,0,4.12.593,5.85,5.85,0,0,0,3.438-.857,2.927,2.927,0,0,0,1.2-2.549,2.817,2.817,0,0,0-.527-1.68,5.893,5.893,0,0,0-1.55-1.417,39.607,39.607,0,0,0-4.163-2.176,19.744,19.744,0,0,1-4.417-2.658,9.983,9.983,0,0,1-2.351-2.967,8.461,8.461,0,0,1-.879-3.955,8.3,8.3,0,0,1,2.89-6.7q2.889-2.439,7.987-2.44a18.837,18.837,0,0,1,4.779.594,32.757,32.757,0,0,1,4.757,1.67l-2.2,5.3a32.1,32.1,0,0,0-4.252-1.472,13.7,13.7,0,0,0-3.307-.417,4.38,4.38,0,0,0-2.966.9,2.972,2.972,0,0,0-1.033,2.352,2.9,2.9,0,0,0,.418,1.57,4.576,4.576,0,0,0,1.329,1.3,41.193,41.193,0,0,0,4.318,2.252q4.5,2.154,6.174,4.317A8.432,8.432,0,0,1,198.33,129.532Z" fill="#f4f3f7"/>
      <path id="Path_39" data-name="Path 39" d="M201.648,149.264a15.652,15.652,0,0,1-4.417-.549v-5.274a11.96,11.96,0,0,0,3.142.417,3.027,3.027,0,0,0,2.472-.944,4.3,4.3,0,0,0,.78-2.791V113.888h6.7v27.223a7.862,7.862,0,0,1-2.263,6.032A9.029,9.029,0,0,1,201.648,149.264Zm1.692-41.727q0-3.273,3.647-3.273t3.648,3.273a3.2,3.2,0,0,1-.912,2.429,3.838,3.838,0,0,1-2.736.868Q203.339,110.834,203.34,107.537Z" fill="#f4f3f7"/>
      <path id="Path_40" data-name="Path 40" d="M232.959,138.453l-1.3-3.34h-.175A9.892,9.892,0,0,1,228,138.068a11.243,11.243,0,0,1-4.669.824,7.55,7.55,0,0,1-5.571-2.021,7.764,7.764,0,0,1-2.032-5.757,6.48,6.48,0,0,1,2.736-5.767q2.736-1.858,8.251-2.055l4.262-.132v-1.076q0-3.735-3.823-3.736a17.412,17.412,0,0,0-6.921,1.78l-2.22-4.527a19.976,19.976,0,0,1,9.4-2.218q4.944,0,7.58,2.152t2.637,6.549v16.369Zm-1.978-11.382-2.593.088a8.3,8.3,0,0,0-4.35,1.055,3.312,3.312,0,0,0-1.428,2.944q0,2.835,3.252,2.834a5.148,5.148,0,0,0,3.724-1.34,4.707,4.707,0,0,0,1.4-3.559Z" fill="#f4f3f7"/>
      <path id="Path_41" data-name="Path 41" d="M258.03,138.892a8.145,8.145,0,0,1-6.79-3.142h-.352q.353,3.078.352,3.56v9.954h-6.7V113.888h5.45l.944,3.186h.308a7.752,7.752,0,0,1,6.965-3.648,7.973,7.973,0,0,1,6.812,3.362q2.46,3.361,2.461,9.339a18.44,18.44,0,0,1-1.154,6.833,9.6,9.6,0,0,1-3.285,4.417A8.422,8.422,0,0,1,258.03,138.892Zm-1.978-20.1a4.233,4.233,0,0,0-3.625,1.527q-1.143,1.528-1.187,5.043v.725q0,3.955,1.175,5.67a4.2,4.2,0,0,0,3.725,1.713q4.5,0,4.5-7.426a10.6,10.6,0,0,0-1.11-5.439A3.785,3.785,0,0,0,256.052,118.787Z" fill="#f4f3f7"/>
      <path id="Path_42" data-name="Path 42" d="M286.506,138.892a8.141,8.141,0,0,1-6.789-3.142h-.352q.351,3.078.352,3.56v9.954h-6.7V113.888h5.449l.945,3.186h.308a7.752,7.752,0,0,1,6.965-3.648,7.971,7.971,0,0,1,6.811,3.362q2.461,3.361,2.461,9.339a18.44,18.44,0,0,1-1.153,6.833,9.6,9.6,0,0,1-3.285,4.417A8.423,8.423,0,0,1,286.506,138.892Zm-1.977-20.1a4.235,4.235,0,0,0-3.626,1.527q-1.143,1.528-1.186,5.043v.725q0,3.955,1.175,5.67a4.2,4.2,0,0,0,3.724,1.713q4.5,0,4.505-7.426a10.6,10.6,0,0,0-1.11-5.439A3.786,3.786,0,0,0,284.529,118.787Z" fill="#f4f3f7"/>
    </g>
    <g id="Group_18" data-name="Group 18">
      <ellipse id="Ellipse_4" data-name="Ellipse 4" cx="6" cy="5.5" rx="6" ry="5.5" transform="translate(221.324 100.453)" fill="#f3b1ca"/>
      <ellipse id="Ellipse_7" data-name="Ellipse 7" cx="2.5" cy="3" rx="2.5" ry="3" transform="translate(226.324 104.453)" fill="#28313e"/>
    </g>
  </g>
</svg>
